PathFileType	4	(X/Y/Z)	D:\TRACE\spot_10-12-23\spot_arm_body_motion_1_8-v60.trc
DataRate	CameraRate	NumFrames	NumMarkers	Units	OrigDataRate	OrigDataStartFrame	OrigNumFrames
100.00	100.00	      14	9	mm	100.00	3501	      7000
Frame#	Time	front left toe			Front right toe			aft left toe			aft right toe			Arm			FL body			FR body			AL Body			AR Body			
		X1	Y1	Z1	X2	Y2	Z2	X3	Y3	Z3	X4	Y4	Z4	X5	Y5	Z5	X6	Y6	Z6	X7	Y7	Z7	X8	Y8	Z8	X9	Y9	Z9	

3501	35.000	-179.76808	37.03651	-405.56863	248.86725	49.53017	-438.35312	-216.33098	10.54625	215.76378	264.69748	22.42498	145.62529	41.22907	803.10229	-711.90155	-116.57659	628.32123	-469.16876	37.31425	632.11194	-473.68420	-96.21358	544.90247	409.07932	45.53198	542.40295	407.52750	
3502	35.010	-179.46732	36.87570	-405.76257	249.97150	49.98851	-438.59686	-216.86140	11.12087	215.54930	265.04001	22.53347	145.53436	40.35035	803.47223	-711.91095	-117.65868	629.10486	-469.84982	37.04318	632.98138	-473.53421	-97.90295	545.30609	408.49158	44.02787	543.09705	407.47702	
3503	35.020	-178.93227	36.58433	-405.97540	250.45229	49.80138	-438.84637	-216.03404	10.64120	215.45090	265.70996	22.82091	145.69940	39.62320	803.68738	-712.02789	-118.34208	629.70502	-470.28006	36.01220	633.82330	-474.69824	-99.61884	545.68182	407.59586	42.03625	543.68719	406.50833	
3504	35.030	-178.44157	36.39435	-406.08234	250.92863	49.88346	-438.93039	-215.57700	10.58401	215.32605	265.67926	22.65346	145.34877	38.80683	803.84906	-712.19116	-119.12365	630.48907	-470.97794	34.69374	634.46411	-475.09064	-101.02270	546.32489	407.09659	40.73414	544.37048	405.86862	
3505	35.040	-178.04686	36.27857	-406.14679	251.23492	49.83743	-439.02850	-214.84973	10.34897	215.43398	266.20529	22.71345	145.11223	37.89032	804.03107	-712.36499	-119.87645	631.09277	-471.65961	34.00625	635.19812	-475.74420	-102.10896	546.95380	406.22812	39.76841	545.33582	405.50085	
3506	35.050	-177.62015	36.15619	-406.22021	251.55124	49.69996	-439.30130	-214.35019	10.36679	215.24852	266.52859	22.83570	144.82419	37.00450	804.19092	-712.56195	-120.61690	631.64056	-472.20471	33.79628	635.88312	-475.97794	-102.71827	547.63922	405.68768	39.33909	546.09454	405.24789	
3507	35.060	-177.18738	35.92995	-406.29492	251.97813	49.57681	-439.51791	-214.11075	10.54132	215.23528	267.16403	22.98593	144.60077	36.43005	804.28326	-712.64972	-121.14262	632.00458	-473.00449	33.13193	636.48413	-476.73901	-103.17451	548.39008	405.19226	38.47699	546.72986	404.12210	
3508	35.070	-176.84952	35.57413	-406.40323	252.06444	49.11320	-439.76062	-213.13641	10.13515	215.17227	267.51215	23.01192	144.62306	36.05897	804.21906	-712.68610	-121.85120	632.15228	-473.72455	32.07021	636.82660	-477.74783	-103.89914	549.04376	404.64420	37.84115	547.50043	403.50378	
3509	35.080	-176.28668	35.24176	-406.45767	252.73926	49.17732	-439.78174	-213.06116	10.72238	214.80006	268.04178	23.10466	144.28445	36.03455	804.14868	-712.81799	-122.30319	632.24896	-474.34161	31.54493	637.20911	-478.58698	-103.90071	549.44214	403.72998	37.84768	548.46259	402.89069	
3510	35.090	-175.67636	35.03497	-406.52985	253.28452	49.30629	-440.10422	-212.34706	10.88083	214.55159	269.11984	23.40330	144.35019	36.39446	804.09070	-713.02765	-122.50219	632.43060	-475.12378	31.70173	637.28754	-478.93942	-103.75894	550.39655	403.16461	37.99184	549.02045	402.18661	
3511	35.100	-175.10622	35.01770	-406.89764	253.76587	49.39204	-440.33127	-211.63965	11.28593	214.13600	269.31155	23.23934	143.93462	36.58599	804.17834	-713.33203	-122.76414	632.49890	-475.83722	31.57803	637.19458	-479.61136	-103.92320	551.38013	402.55618	37.92791	550.01831	401.34531	
3512	35.110	-174.40038	35.21788	-406.97537	254.09120	48.59359	-440.34561	-210.98280	11.45226	214.09686	269.63678	23.33447	143.63182	36.15678	804.55328	-713.61395	-122.67455	632.02039	-476.77969	31.24039	636.75745	-480.86243	-103.89770	552.47876	401.68250	38.14481	551.08063	401.24130	
3513	35.120	-173.82576	34.96529	-407.09354	255.12013	48.69587	-440.51202	-210.49786	11.59362	213.87859	269.87952	23.31314	143.37332	34.96525	805.29327	-713.79114	-121.92807	630.91498	-477.47617	31.88108	635.19214	-481.61191	-103.95300	553.58252	401.21725	37.67056	552.17804	400.14972	
3514	35.130	-173.13470	34.27026	-407.24698	255.77217	48.28562	-440.68423	-210.55154	11.82048	213.90192	270.31400	23.20003	143.33856	33.13010	806.29095	-713.64899	-120.56364	629.43396	-478.29990	32.75298	633.84442	-482.14313	-104.23629	555.08014	400.57373	37.83012	553.01343	400.02985	
